<?xml version="1.0" encoding="utf-8" standalone="no"?>
<!DOCTYPE svg PUBLIC "-//W3C//DTD SVG 1.1//EN"
  "http://www.w3.org/Graphics/SVG/1.1/DTD/svg11.dtd">
<svg xmlns:xlink="http://www.w3.org/1999/xlink" width="581.149062pt" height="221.04pt" viewBox="0 0 581.149062 221.04" xmlns="http://www.w3.org/2000/svg" version="1.1">
 <metadata>
  <rdf:RDF xmlns:dc="http://purl.org/dc/elements/1.1/" xmlns:cc="http://creativecommons.org/ns#" xmlns:rdf="http://www.w3.org/1999/02/22-rdf-syntax-ns#">
   <cc:Work>
    <dc:type rdf:resource="http://purl.org/dc/dcmitype/StillImage"/>
    <dc:date>2026-09-21T00:21:53.107351</dc:date>
    <dc:format>image/svg+xml</dc:format>
    <dc:creator>
     <cc:Agent>
      <dc:title>Matplotlib v3.11.2, https://matplotlib.org/</dc:title>
     </cc:Agent>
    </dc:creator>
   </cc:Work>
  </rdf:RDF>
 </metadata>
 <defs>
  <style type="text/css">*{stroke-linejoin: round; stroke-linecap: butt}</style>
 </defs>
 <g id="figure_1">
  <g id="patch_1">
   <path d="M 0 221.04 
L 581.149062 221.04 
L 581.149062 0 
L 0 0 
z
" style="fill: #fdfbf6"/>
  </g>
  <g id="axes_1">
   <g id="patch_2">
    <path d="M 82.962187 178.083 
L 573.949062 178.083 
L 573.949062 31.2 
L 82.962187 31.2 
z
" style="fill: #fdfbf6"/>
   </g>
   <g id="matplotlib.axis_1">
    <g id="xtick_1">
     <g id="line2d_1">
      <defs>
       <path id="mf7edc4f862" d="M 0 0 
L 0 3.5 
" style="stroke: #8a857b; stroke-width: 0.8"/>
      </defs>
      <g>
       <use xlink:href="#mf7edc4f862" x="105.279773" y="178.083" style="fill: #8a857b; stroke: #8a857b; stroke-width: 0.8"/>
      </g>
     </g>
     <g id="text_1">
      <!-- 18 -->
      <g style="fill: #8a857b" transform="translate(99.959773 194.583) scale(0.095 -0.095)">
       <defs>
        <path id="HankenGrotesk-Regular-1d0" d="M 1862 0 
L 1862 3597 
L 2029 3315 
L 698 3315 
L 698 3750 
L 1472 3750 
Q 1664 3750 1763 3833 
Q 1862 3917 1862 4122 
L 1862 4461 
L 2406 4461 
L 2406 0 
L 1862 0 
z
" transform="scale(0.015625)"/>
        <path id="HankenGrotesk-Regular-1d7" d="M 1792 -51 
Q 1395 -51 1040 99 
Q 685 250 464 547 
Q 243 845 243 1286 
Q 243 1683 444 1984 
Q 646 2285 1018 2426 
Q 774 2547 627 2780 
Q 480 3014 480 3328 
Q 480 3706 672 3968 
Q 864 4230 1165 4371 
Q 1466 4512 1798 4512 
Q 2157 4512 2454 4365 
Q 2752 4218 2928 3949 
Q 3104 3680 3104 3309 
Q 3104 2995 2960 2771 
Q 2816 2547 2566 2426 
Q 2938 2285 3139 1984 
Q 3341 1683 3341 1286 
Q 3341 845 3120 547 
Q 2899 250 2547 99 
Q 2195 -51 1792 -51 
z
M 1792 461 
Q 2067 461 2294 560 
Q 2522 659 2659 854 
Q 2797 1050 2797 1338 
Q 2797 1606 2669 1801 
Q 2541 1997 2313 2102 
Q 2086 2208 1792 2208 
Q 1498 2208 1270 2102 
Q 1043 1997 912 1801 
Q 781 1606 781 1338 
Q 781 1050 921 854 
Q 1062 659 1292 560 
Q 1523 461 1792 461 
z
M 1805 2579 
Q 2138 2579 2352 2771 
Q 2566 2963 2566 3270 
Q 2566 3597 2358 3798 
Q 2150 4000 1798 4000 
Q 1587 4000 1411 3917 
Q 1235 3834 1129 3677 
Q 1024 3520 1024 3296 
Q 1024 2970 1241 2774 
Q 1459 2579 1805 2579 
z
" transform="scale(0.015625)"/>
       </defs>
       <use xlink:href="#HankenGrotesk-Regular-1d0"/>
       <use xlink:href="#HankenGrotesk-Regular-1d7" transform="translate(56 0)"/>
      </g>
     </g>
    </g>
    <g id="xtick_2">
     <g id="line2d_2">
      <g>
       <use xlink:href="#mf7edc4f862" x="164.793333" y="178.083" style="fill: #8a857b; stroke: #8a857b; stroke-width: 0.8"/>
      </g>
     </g>
     <g id="text_2">
      <!-- 20 -->
      <g style="fill: #8a857b" transform="translate(159.473333 194.583) scale(0.095 -0.095)">
       <defs>
        <path id="HankenGrotesk-Regular-1d1" d="M 307 0 
L 307 448 
Q 531 627 828 844 
Q 1126 1062 1430 1318 
Q 1734 1574 1993 1862 
Q 2253 2150 2413 2470 
Q 2573 2790 2573 3130 
Q 2573 3507 2361 3744 
Q 2150 3981 1741 3981 
Q 1440 3981 1238 3843 
Q 1037 3706 937 3466 
Q 838 3226 832 2918 
L 301 2957 
Q 301 3270 397 3548 
Q 493 3827 678 4041 
Q 864 4256 1136 4381 
Q 1408 4506 1760 4506 
Q 2163 4506 2464 4336 
Q 2765 4166 2934 3862 
Q 3104 3558 3104 3149 
Q 3104 2790 2973 2457 
Q 2842 2125 2608 1824 
Q 2374 1523 2073 1254 
Q 1773 986 1433 749 
Q 1094 512 742 314 
L 883 506 
L 3283 506 
L 3283 0 
L 307 0 
z
" transform="scale(0.015625)"/>
        <path id="HankenGrotesk-Regular-1cf" d="M 1805 -51 
Q 1434 -51 1174 86 
Q 915 224 748 461 
Q 582 698 496 995 
Q 410 1293 374 1616 
Q 339 1939 339 2246 
Q 339 2547 371 2867 
Q 403 3187 489 3481 
Q 576 3776 739 4009 
Q 902 4243 1158 4380 
Q 1414 4518 1786 4518 
Q 2144 4518 2397 4387 
Q 2650 4256 2816 4029 
Q 2982 3802 3075 3510 
Q 3168 3219 3206 2892 
Q 3245 2566 3245 2240 
Q 3245 1907 3206 1580 
Q 3168 1254 3075 960 
Q 2982 666 2819 438 
Q 2656 211 2406 80 
Q 2157 -51 1805 -51 
z
M 1805 474 
Q 2138 474 2333 704 
Q 2528 934 2611 1331 
Q 2694 1728 2694 2221 
Q 2694 2739 2608 3139 
Q 2522 3539 2323 3769 
Q 2125 4000 1786 4000 
Q 1517 4000 1344 3859 
Q 1171 3718 1075 3472 
Q 979 3226 937 2906 
Q 896 2586 896 2227 
Q 896 1882 937 1565 
Q 979 1248 1078 1005 
Q 1178 762 1354 618 
Q 1530 474 1805 474 
z
" transform="scale(0.015625)"/>
       </defs>
       <use xlink:href="#HankenGrotesk-Regular-1d1"/>
       <use xlink:href="#HankenGrotesk-Regular-1cf" transform="translate(56 0)"/>
      </g>
     </g>
    </g>
    <g id="xtick_3">
     <g id="line2d_3">
      <g>
       <use xlink:href="#mf7edc4f862" x="224.306894" y="178.083" style="fill: #8a857b; stroke: #8a857b; stroke-width: 0.8"/>
      </g>
     </g>
     <g id="text_3">
      <!-- 22 -->
      <g style="fill: #8a857b" transform="translate(218.986894 194.583) scale(0.095 -0.095)">
       <use xlink:href="#HankenGrotesk-Regular-1d1"/>
       <use xlink:href="#HankenGrotesk-Regular-1d1" transform="translate(56 0)"/>
      </g>
     </g>
    </g>
    <g id="xtick_4">
     <g id="line2d_4">
      <g>
       <use xlink:href="#mf7edc4f862" x="283.820455" y="178.083" style="fill: #8a857b; stroke: #8a857b; stroke-width: 0.8"/>
      </g>
     </g>
     <g id="text_4">
      <!-- 24 -->
      <g style="fill: #8a857b" transform="translate(278.500455 194.583) scale(0.095 -0.095)">
       <defs>
        <path id="HankenGrotesk-Regular-1d3" d="M 2227 0 
L 2227 1062 
L 102 1062 
L 102 1491 
L 2272 4461 
L 2771 4461 
L 2771 1568 
L 3488 1568 
L 3488 1062 
L 2771 1062 
L 2771 0 
L 2227 0 
z
M 557 1376 
L 512 1568 
L 2227 1568 
L 2227 3853 
L 2291 3808 
L 557 1376 
z
" transform="scale(0.015625)"/>
       </defs>
       <use xlink:href="#HankenGrotesk-Regular-1d1"/>
       <use xlink:href="#HankenGrotesk-Regular-1d3" transform="translate(56 0)"/>
      </g>
     </g>
    </g>
    <g id="xtick_5">
     <g id="line2d_5">
      <g>
       <use xlink:href="#mf7edc4f862" x="343.334015" y="178.083" style="fill: #8a857b; stroke: #8a857b; stroke-width: 0.8"/>
      </g>
     </g>
     <g id="text_5">
      <!-- 26 -->
      <g style="fill: #8a857b" transform="translate(338.014015 194.583) scale(0.095 -0.095)">
       <defs>
        <path id="HankenGrotesk-Regular-1d5" d="M 2310 4461 
L 1171 2637 
L 1107 2720 
Q 1254 2816 1414 2867 
Q 1574 2918 1734 2918 
Q 2150 2918 2486 2720 
Q 2822 2522 3017 2189 
Q 3213 1856 3213 1446 
Q 3213 1018 3001 678 
Q 2790 339 2441 144 
Q 2093 -51 1664 -51 
Q 1242 -51 886 144 
Q 531 339 320 678 
Q 109 1018 109 1440 
Q 109 1658 176 1866 
Q 243 2074 352 2253 
L 1690 4461 
L 2310 4461 
z
M 1664 2438 
Q 1395 2438 1168 2310 
Q 941 2182 803 1958 
Q 666 1734 666 1446 
Q 666 1165 800 941 
Q 934 717 1161 589 
Q 1389 461 1664 461 
Q 1939 461 2166 589 
Q 2394 717 2528 941 
Q 2662 1165 2662 1453 
Q 2662 1734 2528 1958 
Q 2394 2182 2170 2310 
Q 1946 2438 1664 2438 
z
" transform="scale(0.015625)"/>
       </defs>
       <use xlink:href="#HankenGrotesk-Regular-1d1"/>
       <use xlink:href="#HankenGrotesk-Regular-1d5" transform="translate(56 0)"/>
      </g>
     </g>
    </g>
    <g id="xtick_6">
     <g id="line2d_6">
      <g>
       <use xlink:href="#mf7edc4f862" x="402.847576" y="178.083" style="fill: #8a857b; stroke: #8a857b; stroke-width: 0.8"/>
      </g>
     </g>
     <g id="text_6">
      <!-- 28 -->
      <g style="fill: #8a857b" transform="translate(397.527576 194.583) scale(0.095 -0.095)">
       <use xlink:href="#HankenGrotesk-Regular-1d1"/>
       <use xlink:href="#HankenGrotesk-Regular-1d7" transform="translate(56 0)"/>
      </g>
     </g>
    </g>
    <g id="xtick_7">
     <g id="line2d_7">
      <g>
       <use xlink:href="#mf7edc4f862" x="462.361136" y="178.083" style="fill: #8a857b; stroke: #8a857b; stroke-width: 0.8"/>
      </g>
     </g>
     <g id="text_7">
      <!-- 30 -->
      <g style="fill: #8a857b" transform="translate(457.041136 194.583) scale(0.095 -0.095)">
       <defs>
        <path id="HankenGrotesk-Regular-1d2" d="M 1760 -51 
Q 1280 -51 921 125 
Q 563 301 364 617 
Q 166 934 166 1357 
L 704 1389 
Q 704 966 998 720 
Q 1293 474 1779 474 
Q 2099 474 2329 576 
Q 2560 678 2685 870 
Q 2810 1062 2810 1318 
Q 2810 1555 2707 1712 
Q 2605 1869 2429 1961 
Q 2253 2054 2016 2092 
Q 1779 2131 1510 2131 
L 1510 2560 
Q 1709 2560 1897 2595 
Q 2086 2630 2236 2713 
Q 2387 2797 2473 2937 
Q 2560 3078 2560 3290 
Q 2560 3501 2457 3661 
Q 2355 3821 2176 3907 
Q 1997 3994 1754 3994 
Q 1357 3994 1133 3776 
Q 909 3558 902 3219 
L 371 3251 
Q 371 3622 550 3907 
Q 730 4192 1046 4352 
Q 1363 4512 1773 4512 
Q 2163 4512 2460 4361 
Q 2758 4211 2931 3948 
Q 3104 3686 3104 3341 
Q 3104 3149 3046 2998 
Q 2989 2848 2883 2733 
Q 2778 2618 2640 2538 
Q 2502 2458 2349 2406 
Q 2541 2362 2720 2278 
Q 2899 2195 3040 2060 
Q 3181 1926 3264 1740 
Q 3347 1555 3347 1312 
Q 3347 909 3145 601 
Q 2944 294 2589 121 
Q 2234 -51 1760 -51 
z
" transform="scale(0.015625)"/>
       </defs>
       <use xlink:href="#HankenGrotesk-Regular-1d2"/>
       <use xlink:href="#HankenGrotesk-Regular-1cf" transform="translate(56 0)"/>
      </g>
     </g>
    </g>
    <g id="xtick_8">
     <g id="line2d_8">
      <g>
       <use xlink:href="#mf7edc4f862" x="521.874697" y="178.083" style="fill: #8a857b; stroke: #8a857b; stroke-width: 0.8"/>
      </g>
     </g>
     <g id="text_8">
      <!-- 32 -->
      <g style="fill: #8a857b" transform="translate(516.554697 194.583) scale(0.095 -0.095)">
       <use xlink:href="#HankenGrotesk-Regular-1d2"/>
       <use xlink:href="#HankenGrotesk-Regular-1d1" transform="translate(56 0)"/>
      </g>
     </g>
    </g>
    <g id="text_9">
    <!-- Věk při prvním startu v top-9 lize -->
    <text x="276.88918" y="210.9615" font-family="'Helvetica Neue', Helvetica, Arial, sans-serif" font-size="9.50" fill="#8a857b" text-anchor="start">Věk při prvním startu v top-9 lize</text>
   </g>
   </g>
   <g id="matplotlib.axis_2">
    <g id="ytick_1">
     <g id="line2d_9">
      <defs>
       <path id="m6351e93123" d="M 0 0 
L -3.5 0 
" style="stroke: #8a857b; stroke-width: 0.8"/>
      </defs>
      <g>
       <use xlink:href="#m6351e93123" x="82.962187" y="138.024" style="fill: #8a857b; stroke: #8a857b; stroke-width: 0.8"/>
      </g>
     </g>
     <g id="text_10">
    <!-- Hráči v poli -->
    <text x="7.2" y="142.774" font-family="'Helvetica Neue', Helvetica, Arial, sans-serif" font-size="9.50" fill="#8a857b" text-anchor="start">Hráči v poli</text>
   </g>
    </g>
    <g id="ytick_2">
     <g id="line2d_10">
      <g>
       <use xlink:href="#m6351e93123" x="82.962187" y="71.259" style="fill: #8a857b; stroke: #8a857b; stroke-width: 0.8"/>
      </g>
     </g>
     <g id="text_11">
    <!-- Brankáři -->
    <text x="21.925" y="76.009" font-family="'Helvetica Neue', Helvetica, Arial, sans-serif" font-size="9.50" fill="#8a857b" text-anchor="start">Brankáři</text>
   </g>
    </g>
   </g>
   <g id="patch_3">
    <path d="M 82.962188 178.083 
L 573.949062 178.083 
" style="fill: none; stroke: #c8c2b7; stroke-width: 0.8; stroke-linejoin: miter; stroke-linecap: square"/>
   </g>
   <g id="PathCollection_1">
    <defs>
     <path id="m8ecf042e62" d="M 0 2.828427 
C 0.750108 2.828427 1.469594 2.530406 2 2 
C 2.530406 1.469594 2.828427 0.750108 2.828427 0 
C 2.828427 -0.750108 2.530406 -1.469594 2 -2 
C 1.469594 -2.530406 0.750108 -2.828427 0 -2.828427 
C -0.750108 -2.828427 -1.469594 -2.530406 -2 -2 
C -2.530406 -1.469594 -2.828427 -0.750108 -2.828427 0 
C -2.828427 0.750108 -2.530406 1.469594 -2 2 
C -1.469594 2.530406 -0.750108 2.828427 0 2.828427 
z
" style="stroke: #fdfbf6; stroke-opacity: 0.8; stroke-width: 0.5"/>
    </defs>
    <g clip-path="url(#pd9c540e720)">
     <use xlink:href="#m8ecf042e62" x="135.036553" y="66.869238" style="fill: #9c3a2a; fill-opacity: 0.8; stroke: #fdfbf6; stroke-opacity: 0.8; stroke-width: 0.5"/>
     <use xlink:href="#m8ecf042e62" x="224.306894" y="72.238387" style="fill: #9c3a2a; fill-opacity: 0.8; stroke: #fdfbf6; stroke-opacity: 0.8; stroke-width: 0.5"/>
     <use xlink:href="#m8ecf042e62" x="254.063674" y="65.51297" style="fill: #9c3a2a; fill-opacity: 0.8; stroke: #fdfbf6; stroke-opacity: 0.8; stroke-width: 0.5"/>
     <use xlink:href="#m8ecf042e62" x="254.063674" y="68.096454" style="fill: #9c3a2a; fill-opacity: 0.8; stroke: #fdfbf6; stroke-opacity: 0.8; stroke-width: 0.5"/>
    </g>
   </g>
   <g id="PathCollection_2">
    <defs>
     <path id="mcb4105fbb1" d="M 0 2.828427 
C 0.750108 2.828427 1.469594 2.530406 2 2 
C 2.530406 1.469594 2.828427 0.750108 2.828427 0 
C 2.828427 -0.750108 2.530406 -1.469594 2 -2 
C 1.469594 -2.530406 0.750108 -2.828427 0 -2.828427 
C -0.750108 -2.828427 -1.469594 -2.530406 -2 -2 
C -2.530406 -1.469594 -2.828427 -0.750108 -2.828427 0 
C -2.828427 0.750108 -2.530406 1.469594 -2 2 
C -1.469594 2.530406 -0.750108 2.828427 0 2.828427 
z
" style="stroke: #fdfbf6; stroke-opacity: 0.8; stroke-width: 0.5"/>
    </defs>
    <g clip-path="url(#pd9c540e720)">
     <use xlink:href="#mcb4105fbb1" x="313.577235" y="144.52674" style="fill: #1f3a5f; fill-opacity: 0.8; stroke: #fdfbf6; stroke-opacity: 0.8; stroke-width: 0.5"/>
     <use xlink:href="#mcb4105fbb1" x="224.306894" y="130.402818" style="fill: #1f3a5f; fill-opacity: 0.8; stroke: #fdfbf6; stroke-opacity: 0.8; stroke-width: 0.5"/>
     <use xlink:href="#mcb4105fbb1" x="105.279773" y="133.839602" style="fill: #1f3a5f; fill-opacity: 0.8; stroke: #fdfbf6; stroke-opacity: 0.8; stroke-width: 0.5"/>
     <use xlink:href="#mcb4105fbb1" x="164.793333" y="133.44022" style="fill: #1f3a5f; fill-opacity: 0.8; stroke: #fdfbf6; stroke-opacity: 0.8; stroke-width: 0.5"/>
     <use xlink:href="#mcb4105fbb1" x="313.577235" y="143.982958" style="fill: #1f3a5f; fill-opacity: 0.8; stroke: #fdfbf6; stroke-opacity: 0.8; stroke-width: 0.5"/>
     <use xlink:href="#mcb4105fbb1" x="402.847576" y="138.818996" style="fill: #1f3a5f; fill-opacity: 0.8; stroke: #fdfbf6; stroke-opacity: 0.8; stroke-width: 0.5"/>
     <use xlink:href="#mcb4105fbb1" x="135.036553" y="140.094281" style="fill: #1f3a5f; fill-opacity: 0.8; stroke: #fdfbf6; stroke-opacity: 0.8; stroke-width: 0.5"/>
     <use xlink:href="#mcb4105fbb1" x="283.820455" y="131.185689" style="fill: #1f3a5f; fill-opacity: 0.8; stroke: #fdfbf6; stroke-opacity: 0.8; stroke-width: 0.5"/>
     <use xlink:href="#mcb4105fbb1" x="254.063674" y="135.718763" style="fill: #1f3a5f; fill-opacity: 0.8; stroke: #fdfbf6; stroke-opacity: 0.8; stroke-width: 0.5"/>
     <use xlink:href="#mcb4105fbb1" x="224.306894" y="132.852197" style="fill: #1f3a5f; fill-opacity: 0.8; stroke: #fdfbf6; stroke-opacity: 0.8; stroke-width: 0.5"/>
     <use xlink:href="#mcb4105fbb1" x="254.063674" y="138.930708" style="fill: #1f3a5f; fill-opacity: 0.8; stroke: #fdfbf6; stroke-opacity: 0.8; stroke-width: 0.5"/>
     <use xlink:href="#mcb4105fbb1" x="551.631477" y="142.394618" style="fill: #1f3a5f; fill-opacity: 0.8; stroke: #fdfbf6; stroke-opacity: 0.8; stroke-width: 0.5"/>
     <use xlink:href="#mcb4105fbb1" x="343.334015" y="137.149355" style="fill: #1f3a5f; fill-opacity: 0.8; stroke: #fdfbf6; stroke-opacity: 0.8; stroke-width: 0.5"/>
     <use xlink:href="#mcb4105fbb1" x="254.063674" y="145.013218" style="fill: #1f3a5f; fill-opacity: 0.8; stroke: #fdfbf6; stroke-opacity: 0.8; stroke-width: 0.5"/>
     <use xlink:href="#mcb4105fbb1" x="432.604356" y="132.774169" style="fill: #1f3a5f; fill-opacity: 0.8; stroke: #fdfbf6; stroke-opacity: 0.8; stroke-width: 0.5"/>
     <use xlink:href="#mcb4105fbb1" x="313.577235" y="135.914262" style="fill: #1f3a5f; fill-opacity: 0.8; stroke: #fdfbf6; stroke-opacity: 0.8; stroke-width: 0.5"/>
     <use xlink:href="#mcb4105fbb1" x="194.550114" y="133.888505" style="fill: #1f3a5f; fill-opacity: 0.8; stroke: #fdfbf6; stroke-opacity: 0.8; stroke-width: 0.5"/>
     <use xlink:href="#mcb4105fbb1" x="313.577235" y="140.355018" style="fill: #1f3a5f; fill-opacity: 0.8; stroke: #fdfbf6; stroke-opacity: 0.8; stroke-width: 0.5"/>
     <use xlink:href="#mcb4105fbb1" x="254.063674" y="130.481723" style="fill: #1f3a5f; fill-opacity: 0.8; stroke: #fdfbf6; stroke-opacity: 0.8; stroke-width: 0.5"/>
    </g>
   </g>
   <g id="text_12">
    <!-- Věk při prvním startu v top-9 lize: brankáři vs. hráči v poli -->
    <text x="82.962187" y="19.2" font-family="'Helvetica Neue', Helvetica, Arial, sans-serif" font-size="12.00" fill="#2a261f" text-anchor="start">Věk při prvním startu v top-9 lize: brankáři vs. hráči v poli</text>
   </g>
   <g id="line2d_11">
    <path d="M 239.185284 87.2826 
L 239.185284 55.2354 
" clip-path="url(#pd9c540e720)" style="fill: none; stroke: #9c3a2a; stroke-width: 2.2; stroke-linecap: square"/>
   </g>
   <g id="line2d_12">
    <path d="M 254.063674 154.0476 
L 254.063674 122.0004 
" clip-path="url(#pd9c540e720)" style="fill: none; stroke: #1f3a5f; stroke-width: 2.2; stroke-linecap: square"/>
   </g>
  </g>
 </g>
 <defs>
  <clipPath id="pd9c540e720">
   <rect x="82.962187" y="31.2" width="490.986875" height="146.883"/>
  </clipPath>
 </defs>
</svg>
