<?xml version="1.0" encoding="utf-8" standalone="no"?>
<!DOCTYPE svg PUBLIC "-//W3C//DTD SVG 1.1//EN"
  "http://www.w3.org/Graphics/SVG/1.1/DTD/svg11.dtd">
<svg xmlns:xlink="http://www.w3.org/1999/xlink" width="678.22pt" height="327.13pt" viewBox="0 0 678.22 327.13" xmlns="http://www.w3.org/2000/svg" version="1.1">
 <metadata>
  <rdf:RDF xmlns:dc="http://purl.org/dc/elements/1.1/" xmlns:cc="http://creativecommons.org/ns#" xmlns:rdf="http://www.w3.org/1999/02/22-rdf-syntax-ns#">
   <cc:Work>
    <dc:type rdf:resource="http://purl.org/dc/dcmitype/StillImage"/>
    <dc:date>2026-09-20T23:04:48.841671</dc:date>
    <dc:format>image/svg+xml</dc:format>
    <dc:creator>
     <cc:Agent>
      <dc:title>Matplotlib v3.11.2, https://matplotlib.org/</dc:title>
     </cc:Agent>
    </dc:creator>
   </cc:Work>
  </rdf:RDF>
 </metadata>
 <defs>
  <style type="text/css">*{stroke-linejoin: round; stroke-linecap: butt}</style>
 </defs>
 <g id="figure_1">
  <g id="patch_1">
   <path d="M 0 327.13 
L 678.22 327.13 
L 678.22 0 
L 0 0 
z
" style="fill: #fdfbf6"/>
  </g>
  <g id="axes_1">
   <g id="patch_2">
    <path d="M 90.7 303.4 
L 671.02 303.4 
L 671.02 26.2 
L 90.7 26.2 
z
" style="fill: #fdfbf6"/>
   </g>
   <g id="patch_3">
    <path d="M 90.7 280.3 
L 671.02 280.3 
L 671.02 49.3 
L 90.7 49.3 
z
" clip-path="url(#p0380482328)" style="fill: #efe9dc"/>
   </g>
   <g id="matplotlib.axis_1">
    <g id="xtick_1">
     <g id="line2d_1"/>
     <g id="text_1">
    <!-- Na milion -->
    <text x="129.958529" y="316.9" font-family="'Helvetica Neue', Helvetica, Arial, sans-serif" font-size="10.00" fill="#2a261f" text-anchor="start">Na milion</text>
   </g>
    </g>
    <g id="xtick_2">
     <g id="line2d_2"/>
     <g id="text_2">
    <!-- Podíl U21 -->
    <text x="244.511608" y="316.9" font-family="'Helvetica Neue', Helvetica, Arial, sans-serif" font-size="10.00" fill="#2a261f" text-anchor="start">Podíl U21</text>
   </g>
    </g>
    <g id="xtick_3">
     <g id="line2d_3"/>
     <g id="text_3">
    <!-- Věk exportu -->
    <text x="356.524844" y="316.9" font-family="'Helvetica Neue', Helvetica, Arial, sans-serif" font-size="10.00" fill="#2a261f" text-anchor="start">Věk exportu</text>
   </g>
    </g>
    <g id="xtick_4">
     <g id="line2d_4"/>
     <g id="text_4">
    <!-- Do strany -->
    <text x="473.768548" y="316.9" font-family="'Helvetica Neue', Helvetica, Arial, sans-serif" font-size="10.00" fill="#2a261f" text-anchor="start">Do strany</text>
   </g>
    </g>
    <g id="xtick_5">
     <g id="line2d_5"/>
     <g id="text_5">
    <!-- Podíl minut -->
    <text x="577.231002" y="316.9" font-family="'Helvetica Neue', Helvetica, Arial, sans-serif" font-size="10.00" fill="#2a261f" text-anchor="start">Podíl minut</text>
   </g>
    </g>
   </g>
   <g id="matplotlib.axis_2">
    <g id="ytick_1">
     <g id="line2d_6"/>
     <g id="text_6">
    <!-- nejhorší ze tří -->
    <text x="7.2" y="285.3" font-family="'Helvetica Neue', Helvetica, Arial, sans-serif" font-size="10.00" fill="#2a261f" text-anchor="start">nejhorší ze tří</text>
   </g>
    </g>
    <g id="ytick_2">
     <g id="line2d_7"/>
     <g id="text_7">
    <!-- nejlepší ze tří -->
    <text x="13.1" y="54.3" font-family="'Helvetica Neue', Helvetica, Arial, sans-serif" font-size="10.00" fill="#2a261f" text-anchor="start">nejlepší ze tří</text>
   </g>
    </g>
   </g>
   <g id="line2d_8">
    <path d="M 153.283529 280.3 
L 267.071765 280.3 
L 380.86 164.8 
L 494.648235 215.388172 
L 608.436471 49.3 
" clip-path="url(#p0380482328)" style="fill: none; stroke: #9c3a2a; stroke-width: 2.4; stroke-linecap: square"/>
    <defs>
     <path id="mdf95cee8c9" d="M 0 3 
C 0.795609 3 1.55874 2.683901 2.12132 2.12132 
C 2.683901 1.55874 3 0.795609 3 0 
C 3 -0.795609 2.683901 -1.55874 2.12132 -2.12132 
C 1.55874 -2.683901 0.795609 -3 0 -3 
C -0.795609 -3 -1.55874 -2.683901 -2.12132 -2.12132 
C -2.683901 -1.55874 -3 -0.795609 -3 0 
C -3 0.795609 -2.683901 1.55874 -2.12132 2.12132 
C -1.55874 2.683901 -0.795609 3 0 3 
z
" style="stroke: #9c3a2a"/>
    </defs>
    <g clip-path="url(#p0380482328)">
     <use xlink:href="#mdf95cee8c9" x="153.283529" y="280.3" style="fill: #9c3a2a; stroke: #9c3a2a"/>
     <use xlink:href="#mdf95cee8c9" x="267.071765" y="280.3" style="fill: #9c3a2a; stroke: #9c3a2a"/>
     <use xlink:href="#mdf95cee8c9" x="380.86" y="164.8" style="fill: #9c3a2a; stroke: #9c3a2a"/>
     <use xlink:href="#mdf95cee8c9" x="494.648235" y="215.388172" style="fill: #9c3a2a; stroke: #9c3a2a"/>
     <use xlink:href="#mdf95cee8c9" x="608.436471" y="49.3" style="fill: #9c3a2a; stroke: #9c3a2a"/>
    </g>
   </g>
   <g id="text_8">
    <!-- CZE -->
    <g style="fill: #9c3a2a" transform="translate(125.424154 283.785) scale(0.1 -0.1)">
     <defs>
      <path id="HankenGrotesk-SemiBold-1c" d="M 2381 -90 
Q 1754 -90 1280 198 
Q 806 486 540 1011 
Q 275 1536 275 2234 
Q 275 2931 540 3452 
Q 806 3974 1280 4262 
Q 1754 4550 2381 4550 
Q 3078 4550 3587 4204 
Q 4096 3859 4320 3245 
L 3629 2995 
Q 3475 3398 3155 3622 
Q 2835 3846 2381 3846 
Q 1965 3846 1657 3648 
Q 1350 3450 1180 3091 
Q 1011 2733 1011 2234 
Q 1011 1734 1180 1372 
Q 1350 1011 1657 812 
Q 1965 614 2381 614 
Q 2835 614 3155 841 
Q 3475 1069 3629 1466 
L 4320 1216 
Q 4096 614 3587 262 
Q 3078 -90 2381 -90 
z
" transform="scale(0.015625)"/>
      <path id="HankenGrotesk-SemiBold-b8" d="M 186 0 
L 186 614 
L 2803 4032 
L 2912 3802 
L 339 3802 
L 339 4461 
L 3552 4461 
L 3552 3846 
L 992 518 
L 896 659 
L 3629 659 
L 3629 0 
L 186 0 
z
" transform="scale(0.015625)"/>
      <path id="HankenGrotesk-SemiBold-26" d="M 454 0 
L 454 4461 
L 3418 4461 
L 3418 3802 
L 1197 3802 
L 1197 2618 
L 3245 2618 
L 3245 1952 
L 1197 1952 
L 1197 659 
L 3418 659 
L 3418 0 
L 454 0 
z
" transform="scale(0.015625)"/>
     </defs>
     <use xlink:href="#HankenGrotesk-SemiBold-1c"/>
     <use xlink:href="#HankenGrotesk-SemiBold-b8" transform="translate(70.796875 0)"/>
     <use xlink:href="#HankenGrotesk-SemiBold-26" transform="translate(130.59375 0)"/>
    </g>
   </g>
   <g id="text_9">
    <!-- CZE -->
    <g style="fill: #9c3a2a" transform="translate(617.436471 52.785) scale(0.1 -0.1)">
     <use xlink:href="#HankenGrotesk-SemiBold-1c"/>
     <use xlink:href="#HankenGrotesk-SemiBold-b8" transform="translate(70.796875 0)"/>
     <use xlink:href="#HankenGrotesk-SemiBold-26" transform="translate(130.59375 0)"/>
    </g>
   </g>
   <g id="line2d_9">
    <path d="M 153.283529 122.0684 
L 267.071765 147.929213 
L 380.86 164.8 
L 494.648235 280.3 
L 608.436471 280.3 
" clip-path="url(#p0380482328)" style="fill: none; stroke: #1f3a5f; stroke-width: 1.8; stroke-linecap: square"/>
    <defs>
     <path id="m9a90c233b0" d="M 0 3 
C 0.795609 3 1.55874 2.683901 2.12132 2.12132 
C 2.683901 1.55874 3 0.795609 3 0 
C 3 -0.795609 2.683901 -1.55874 2.12132 -2.12132 
C 1.55874 -2.683901 0.795609 -3 0 -3 
C -0.795609 -3 -1.55874 -2.683901 -2.12132 -2.12132 
C -2.683901 -1.55874 -3 -0.795609 -3 0 
C -3 0.795609 -2.683901 1.55874 -2.12132 2.12132 
C -1.55874 2.683901 -0.795609 3 0 3 
z
" style="stroke: #1f3a5f"/>
    </defs>
    <g clip-path="url(#p0380482328)">
     <use xlink:href="#m9a90c233b0" x="153.283529" y="122.0684" style="fill: #1f3a5f; stroke: #1f3a5f"/>
     <use xlink:href="#m9a90c233b0" x="267.071765" y="147.929213" style="fill: #1f3a5f; stroke: #1f3a5f"/>
     <use xlink:href="#m9a90c233b0" x="380.86" y="164.8" style="fill: #1f3a5f; stroke: #1f3a5f"/>
     <use xlink:href="#m9a90c233b0" x="494.648235" y="280.3" style="fill: #1f3a5f; stroke: #1f3a5f"/>
     <use xlink:href="#m9a90c233b0" x="608.436471" y="280.3" style="fill: #1f3a5f; stroke: #1f3a5f"/>
    </g>
   </g>
   <g id="text_10">
    <!-- NOR -->
    <g style="fill: #1f3a5f" transform="translate(123.883529 125.5534) scale(0.1 -0.1)">
     <defs>
      <path id="HankenGrotesk-SemiBold-5e" d="M 454 0 
L 454 4461 
L 1222 4461 
L 3373 966 
L 3187 966 
L 3187 4461 
L 3930 4461 
L 3930 0 
L 3149 0 
L 1018 3501 
L 1197 3501 
L 1197 0 
L 454 0 
z
" transform="scale(0.015625)"/>
      <path id="HankenGrotesk-SemiBold-66" d="M 2381 -90 
Q 1754 -90 1280 198 
Q 806 486 540 1011 
Q 275 1536 275 2227 
Q 275 2925 540 3449 
Q 806 3974 1280 4262 
Q 1754 4550 2381 4550 
Q 3021 4550 3497 4262 
Q 3974 3974 4240 3452 
Q 4506 2931 4506 2227 
Q 4506 1530 4237 1008 
Q 3968 486 3491 198 
Q 3014 -90 2381 -90 
z
M 2381 614 
Q 2810 614 3117 812 
Q 3424 1011 3593 1372 
Q 3763 1734 3763 2227 
Q 3763 2726 3593 3088 
Q 3424 3450 3117 3648 
Q 2810 3846 2381 3846 
Q 1965 3846 1657 3651 
Q 1350 3456 1180 3094 
Q 1011 2733 1011 2227 
Q 1011 1728 1177 1366 
Q 1344 1005 1654 809 
Q 1965 614 2381 614 
z
" transform="scale(0.015625)"/>
      <path id="HankenGrotesk-SemiBold-84" d="M 454 0 
L 454 4461 
L 1882 4461 
Q 2413 4461 2745 4304 
Q 3078 4147 3235 3859 
Q 3392 3571 3392 3181 
Q 3392 2586 3049 2256 
Q 2707 1926 2074 1875 
Q 1946 1875 1798 1875 
Q 1651 1875 1536 1875 
L 1197 1875 
L 1197 0 
L 454 0 
z
M 2899 0 
L 1766 1958 
L 2528 2048 
L 3757 0 
L 2899 0 
z
M 1197 2528 
L 1805 2528 
Q 2048 2528 2237 2585 
Q 2426 2643 2538 2784 
Q 2650 2925 2650 3174 
Q 2650 3424 2538 3558 
Q 2426 3693 2234 3747 
Q 2042 3802 1805 3802 
L 1197 3802 
L 1197 2528 
z
" transform="scale(0.015625)"/>
     </defs>
     <use xlink:href="#HankenGrotesk-SemiBold-5e"/>
     <use xlink:href="#HankenGrotesk-SemiBold-66" transform="translate(68.5 0)"/>
     <use xlink:href="#HankenGrotesk-SemiBold-84" transform="translate(143.296875 0)"/>
    </g>
   </g>
   <g id="text_11">
    <!-- NOR -->
    <g style="fill: #1f3a5f" transform="translate(617.436471 283.785) scale(0.1 -0.1)">
     <use xlink:href="#HankenGrotesk-SemiBold-5e"/>
     <use xlink:href="#HankenGrotesk-SemiBold-66" transform="translate(68.5 0)"/>
     <use xlink:href="#HankenGrotesk-SemiBold-84" transform="translate(143.296875 0)"/>
    </g>
   </g>
   <g id="line2d_10">
    <path d="M 153.283529 49.3 
L 267.071765 49.3 
L 380.86 164.8 
L 494.648235 49.3 
L 608.436471 131.8 
" clip-path="url(#p0380482328)" style="fill: none; stroke: #5b7290; stroke-width: 1.8; stroke-linecap: square"/>
    <defs>
     <path id="m9a8d4fcf21" d="M 0 3 
C 0.795609 3 1.55874 2.683901 2.12132 2.12132 
C 2.683901 1.55874 3 0.795609 3 0 
C 3 -0.795609 2.683901 -1.55874 2.12132 -2.12132 
C 1.55874 -2.683901 0.795609 -3 0 -3 
C -0.795609 -3 -1.55874 -2.683901 -2.12132 -2.12132 
C -2.683901 -1.55874 -3 -0.795609 -3 0 
C -3 0.795609 -2.683901 1.55874 -2.12132 2.12132 
C -1.55874 2.683901 -0.795609 3 0 3 
z
" style="stroke: #5b7290"/>
    </defs>
    <g clip-path="url(#p0380482328)">
     <use xlink:href="#m9a8d4fcf21" x="153.283529" y="49.3" style="fill: #5b7290; stroke: #5b7290"/>
     <use xlink:href="#m9a8d4fcf21" x="267.071765" y="49.3" style="fill: #5b7290; stroke: #5b7290"/>
     <use xlink:href="#m9a8d4fcf21" x="380.86" y="164.8" style="fill: #5b7290; stroke: #5b7290"/>
     <use xlink:href="#m9a8d4fcf21" x="494.648235" y="49.3" style="fill: #5b7290; stroke: #5b7290"/>
     <use xlink:href="#m9a8d4fcf21" x="608.436471" y="131.8" style="fill: #5b7290; stroke: #5b7290"/>
    </g>
   </g>
   <g id="text_12">
    <!-- DEN -->
    <g style="fill: #5b7290" transform="translate(124.874154 52.785) scale(0.1 -0.1)">
     <defs>
      <path id="HankenGrotesk-SemiBold-22" d="M 454 0 
L 454 4461 
L 1734 4461 
Q 2835 4461 3443 3869 
Q 4051 3277 4051 2195 
Q 4051 1133 3452 566 
Q 2854 0 1728 0 
L 454 0 
z
M 1197 678 
L 1658 678 
Q 2176 678 2547 822 
Q 2918 966 3110 1305 
Q 3302 1645 3302 2221 
Q 3302 2797 3113 3139 
Q 2925 3482 2569 3632 
Q 2214 3782 1722 3782 
L 1197 3782 
L 1197 678 
z
" transform="scale(0.015625)"/>
     </defs>
     <use xlink:href="#HankenGrotesk-SemiBold-22"/>
     <use xlink:href="#HankenGrotesk-SemiBold-26" transform="translate(67.59375 0)"/>
     <use xlink:href="#HankenGrotesk-SemiBold-5e" transform="translate(125.59375 0)"/>
    </g>
   </g>
   <g id="text_13">
    <!-- DEN -->
    <g style="fill: #5b7290" transform="translate(617.436471 135.285) scale(0.1 -0.1)">
     <use xlink:href="#HankenGrotesk-SemiBold-22"/>
     <use xlink:href="#HankenGrotesk-SemiBold-26" transform="translate(67.59375 0)"/>
     <use xlink:href="#HankenGrotesk-SemiBold-5e" transform="translate(125.59375 0)"/>
    </g>
   </g>
   <g id="text_14">
    <!-- Stejných šest čísel, normalizováno -->
    <text x="90.7" y="20.2" font-family="'Helvetica Neue', Helvetica, Arial, sans-serif" font-size="13.00" fill="#2a261f" text-anchor="start">Stejných šest čísel, normalizováno</text>
   </g>
  </g>
 </g>
 <defs>
  <clipPath id="p0380482328">
   <rect x="90.7" y="26.2" width="580.32" height="277.2"/>
  </clipPath>
 </defs>
</svg>
