<?xml version="1.0" encoding="utf-8" standalone="no"?>
<!DOCTYPE svg PUBLIC "-//W3C//DTD SVG 1.1//EN"
  "http://www.w3.org/Graphics/SVG/1.1/DTD/svg11.dtd">
<svg xmlns:xlink="http://www.w3.org/1999/xlink" width="602.32pt" height="408.24pt" viewBox="0 0 602.32 408.24" xmlns="http://www.w3.org/2000/svg" version="1.1">
 <defs>
<path id="HankenGrotesk-Regular-8f" d="M 1594 0 
L 1594 3955 
L 96 3955 
L 96 4461 
L 3654 4461 
L 3654 3955 
L 2163 3955 
L 2163 0 
L 1594 0 
z
" transform="scale(0.015625)"/>
<path id="HankenGrotesk-Regular-94" d="M 2093 -77 
Q 1299 -77 880 352 
Q 461 781 461 1613 
L 461 4461 
L 1024 4461 
L 1024 1677 
Q 1024 1274 1129 998 
Q 1235 723 1472 582 
Q 1709 442 2093 442 
Q 2477 442 2717 586 
Q 2957 730 3065 1005 
Q 3174 1280 3174 1683 
L 3174 4461 
L 3731 4461 
L 3731 1645 
Q 3731 800 3312 361 
Q 2893 -77 2093 -77 
z
" transform="scale(0.015625)"/>
</defs>
<metadata>
  <rdf:RDF xmlns:dc="http://purl.org/dc/elements/1.1/" xmlns:cc="http://creativecommons.org/ns#" xmlns:rdf="http://www.w3.org/1999/02/22-rdf-syntax-ns#">
   <cc:Work>
    <dc:type rdf:resource="http://purl.org/dc/dcmitype/StillImage"/>
    <dc:date>2026-09-20T22:24:45.291368</dc:date>
    <dc:format>image/svg+xml</dc:format>
    <dc:creator>
     <cc:Agent>
      <dc:title>Matplotlib v3.11.2, https://matplotlib.org/</dc:title>
     </cc:Agent>
    </dc:creator>
   </cc:Work>
  </rdf:RDF>
 </metadata>
 <defs>
  <style type="text/css">*{stroke-linejoin: round; stroke-linecap: butt}</style>
 </defs>
 <g id="figure_1">
  <g id="patch_1">
   <path d="M 0 408.24 
L 602.32 408.24 
L 602.32 0 
L 0 0 
z
" style="fill: #fdfbf6"/>
  </g>
  <g id="axes_1">
   <g id="patch_2">
    <path d="M 42.43 363.98 
L 595.12 363.98 
L 595.12 26.2 
L 42.43 26.2 
z
" style="fill: #fdfbf6"/>
   </g>
   <g id="FillBetweenPolyCollection_1">
    <defs>
     <path id="madc081d37e" d="M 67.552273 -247.402891 
L 67.552273 -59.613636 
L 76.068297 -64.630905 
L 84.584322 -69.184434 
L 93.100347 -73.422883 
L 101.616371 -77.725792 
L 110.132396 -82.555277 
L 118.648421 -86.868437 
L 127.164445 -91.402396 
L 135.68047 -95.7517 
L 144.196495 -99.559564 
L 152.712519 -103.627643 
L 161.228544 -107.917685 
L 169.744569 -111.73682 
L 178.260593 -116.201416 
L 186.776618 -120.505947 
L 195.292643 -124.747123 
L 203.808667 -128.136229 
L 212.324692 -131.719445 
L 220.840716 -136.004192 
L 229.356741 -140.11484 
L 237.872766 -144.069686 
L 246.38879 -148.185341 
L 254.904815 -151.49745 
L 263.42084 -155.131189 
L 271.936864 -158.62536 
L 280.452889 -161.031372 
L 288.968914 -163.780962 
L 297.484938 -166.319604 
L 306.000963 -168.924293 
L 314.516988 -171.943286 
L 323.033012 -175.05598 
L 331.549037 -177.027172 
L 340.065062 -179.148465 
L 348.581086 -181.229844 
L 357.097111 -183.239479 
L 365.613136 -184.775737 
L 374.12916 -186.540941 
L 382.645185 -187.759831 
L 391.16121 -188.643119 
L 399.677234 -189.343806 
L 408.193259 -189.986681 
L 416.709284 -190.657995 
L 425.225308 -191.786464 
L 433.741333 -192.035792 
L 442.257357 -192.350456 
L 450.773382 -192.774416 
L 459.289407 -193.244582 
L 467.805431 -193.284047 
L 476.321456 -193.435533 
L 484.837481 -194.258087 
L 493.353505 -194.693964 
L 501.86953 -194.292778 
L 510.385555 -194.402842 
L 518.901579 -194.248881 
L 527.417604 -194.134745 
L 535.933629 -194.220965 
L 544.449653 -194.303204 
L 552.965678 -194.0365 
L 561.481703 -193.895605 
L 569.997727 -193.663342 
L 569.997727 -366.686364 
L 569.997727 -366.686364 
L 561.481703 -362.405808 
L 552.965678 -357.453493 
L 544.449653 -352.697944 
L 535.933629 -348.096396 
L 527.417604 -344.078752 
L 518.901579 -339.430121 
L 510.385555 -334.752572 
L 501.86953 -330.046603 
L 493.353505 -326.254087 
L 484.837481 -322.160421 
L 476.321456 -317.995164 
L 467.805431 -313.973585 
L 459.289407 -310.444417 
L 450.773382 -306.384002 
L 442.257357 -302.11625 
L 433.741333 -298.558873 
L 425.225308 -294.382172 
L 416.709284 -290.337716 
L 408.193259 -286.812138 
L 399.677234 -283.231016 
L 391.16121 -280.185286 
L 382.645185 -276.803797 
L 374.12916 -273.790911 
L 365.613136 -270.664073 
L 357.097111 -268.026658 
L 348.581086 -265.712478 
L 340.065062 -263.339154 
L 331.549037 -261.058591 
L 323.033012 -258.908452 
L 314.516988 -256.794128 
L 306.000963 -254.678622 
L 297.484938 -253.601339 
L 288.968914 -252.232057 
L 280.452889 -250.903141 
L 271.936864 -249.882385 
L 263.42084 -248.369864 
L 254.904815 -247.493279 
L 246.38879 -246.809433 
L 237.872766 -246.193555 
L 229.356741 -245.80151 
L 220.840716 -245.542593 
L 212.324692 -245.085861 
L 203.808667 -244.846931 
L 195.292643 -244.847689 
L 186.776618 -244.762223 
L 178.260593 -244.472527 
L 169.744569 -244.723496 
L 161.228544 -244.983548 
L 152.712519 -245.032238 
L 144.196495 -244.819991 
L 135.68047 -244.950162 
L 127.164445 -244.924518 
L 118.648421 -244.883796 
L 110.132396 -245.137218 
L 101.616371 -245.841621 
L 93.100347 -246.265975 
L 84.584322 -246.682536 
L 76.068297 -246.851125 
L 67.552273 -247.402891 
z
"/>
    </defs>
    <g clip-path="url(#p5aba6d0e15)">
     <use xlink:href="#madc081d37e" x="0" y="408.24" style="fill: #1f3a5f; fill-opacity: 0.12"/>
    </g>
   </g>
   <g id="matplotlib.axis_1">
    <g id="xtick_1">
     <g id="line2d_1">
      <defs>
       <path id="mf9a3711e8d" d="M 0 0 
L 0 3.5 
" style="stroke: #2a261f; stroke-width: 0.8"/>
      </defs>
      <g>
       <use xlink:href="#mf9a3711e8d" x="47.59466" y="363.98" style="fill: #2a261f; stroke: #2a261f; stroke-width: 0.8"/>
      </g>
     </g>
     <g id="text_1">
      <!-- 6 -->
      <g style="fill: #2a261f" transform="translate(44.79466 380.98) scale(0.1 -0.1)">
       <defs>
        <path id="HankenGrotesk-Regular-1d5" d="M 2310 4461 
L 1171 2637 
L 1107 2720 
Q 1254 2816 1414 2867 
Q 1574 2918 1734 2918 
Q 2150 2918 2486 2720 
Q 2822 2522 3017 2189 
Q 3213 1856 3213 1446 
Q 3213 1018 3001 678 
Q 2790 339 2441 144 
Q 2093 -51 1664 -51 
Q 1242 -51 886 144 
Q 531 339 320 678 
Q 109 1018 109 1440 
Q 109 1658 176 1866 
Q 243 2074 352 2253 
L 1690 4461 
L 2310 4461 
z
M 1664 2438 
Q 1395 2438 1168 2310 
Q 941 2182 803 1958 
Q 666 1734 666 1446 
Q 666 1165 800 941 
Q 934 717 1161 589 
Q 1389 461 1664 461 
Q 1939 461 2166 589 
Q 2394 717 2528 941 
Q 2662 1165 2662 1453 
Q 2662 1734 2528 1958 
Q 2394 2182 2170 2310 
Q 1946 2438 1664 2438 
z
" transform="scale(0.015625)"/>
       </defs>
       <use xlink:href="#HankenGrotesk-Regular-1d5"/>
      </g>
     </g>
    </g>
    <g id="xtick_2">
     <g id="line2d_2">
      <g>
       <use xlink:href="#mf9a3711e8d" x="160.087779" y="363.98" style="fill: #2a261f; stroke: #2a261f; stroke-width: 0.8"/>
      </g>
     </g>
     <g id="text_2">
      <!-- 8 -->
      <g style="fill: #2a261f" transform="translate(157.287779 380.98) scale(0.1 -0.1)">
       <defs>
        <path id="HankenGrotesk-Regular-1d7" d="M 1792 -51 
Q 1395 -51 1040 99 
Q 685 250 464 547 
Q 243 845 243 1286 
Q 243 1683 444 1984 
Q 646 2285 1018 2426 
Q 774 2547 627 2780 
Q 480 3014 480 3328 
Q 480 3706 672 3968 
Q 864 4230 1165 4371 
Q 1466 4512 1798 4512 
Q 2157 4512 2454 4365 
Q 2752 4218 2928 3949 
Q 3104 3680 3104 3309 
Q 3104 2995 2960 2771 
Q 2816 2547 2566 2426 
Q 2938 2285 3139 1984 
Q 3341 1683 3341 1286 
Q 3341 845 3120 547 
Q 2899 250 2547 99 
Q 2195 -51 1792 -51 
z
M 1792 461 
Q 2067 461 2294 560 
Q 2522 659 2659 854 
Q 2797 1050 2797 1338 
Q 2797 1606 2669 1801 
Q 2541 1997 2313 2102 
Q 2086 2208 1792 2208 
Q 1498 2208 1270 2102 
Q 1043 1997 912 1801 
Q 781 1606 781 1338 
Q 781 1050 921 854 
Q 1062 659 1292 560 
Q 1523 461 1792 461 
z
M 1805 2579 
Q 2138 2579 2352 2771 
Q 2566 2963 2566 3270 
Q 2566 3597 2358 3798 
Q 2150 4000 1798 4000 
Q 1587 4000 1411 3917 
Q 1235 3834 1129 3677 
Q 1024 3520 1024 3296 
Q 1024 2970 1241 2774 
Q 1459 2579 1805 2579 
z
" transform="scale(0.015625)"/>
       </defs>
       <use xlink:href="#HankenGrotesk-Regular-1d7"/>
      </g>
     </g>
    </g>
    <g id="xtick_3">
     <g id="line2d_3">
      <g>
       <use xlink:href="#mf9a3711e8d" x="272.580897" y="363.98" style="fill: #2a261f; stroke: #2a261f; stroke-width: 0.8"/>
      </g>
     </g>
     <g id="text_3">
      <!-- 10 -->
      <g style="fill: #2a261f" transform="translate(266.980897 380.98) scale(0.1 -0.1)">
       <defs>
        <path id="HankenGrotesk-Regular-1d0" d="M 1862 0 
L 1862 3597 
L 2029 3315 
L 698 3315 
L 698 3750 
L 1472 3750 
Q 1664 3750 1763 3833 
Q 1862 3917 1862 4122 
L 1862 4461 
L 2406 4461 
L 2406 0 
L 1862 0 
z
" transform="scale(0.015625)"/>
        <path id="HankenGrotesk-Regular-1cf" d="M 1805 -51 
Q 1434 -51 1174 86 
Q 915 224 748 461 
Q 582 698 496 995 
Q 410 1293 374 1616 
Q 339 1939 339 2246 
Q 339 2547 371 2867 
Q 403 3187 489 3481 
Q 576 3776 739 4009 
Q 902 4243 1158 4380 
Q 1414 4518 1786 4518 
Q 2144 4518 2397 4387 
Q 2650 4256 2816 4029 
Q 2982 3802 3075 3510 
Q 3168 3219 3206 2892 
Q 3245 2566 3245 2240 
Q 3245 1907 3206 1580 
Q 3168 1254 3075 960 
Q 2982 666 2819 438 
Q 2656 211 2406 80 
Q 2157 -51 1805 -51 
z
M 1805 474 
Q 2138 474 2333 704 
Q 2528 934 2611 1331 
Q 2694 1728 2694 2221 
Q 2694 2739 2608 3139 
Q 2522 3539 2323 3769 
Q 2125 4000 1786 4000 
Q 1517 4000 1344 3859 
Q 1171 3718 1075 3472 
Q 979 3226 937 2906 
Q 896 2586 896 2227 
Q 896 1882 937 1565 
Q 979 1248 1078 1005 
Q 1178 762 1354 618 
Q 1530 474 1805 474 
z
" transform="scale(0.015625)"/>
       </defs>
       <use xlink:href="#HankenGrotesk-Regular-1d0"/>
       <use xlink:href="#HankenGrotesk-Regular-1cf" transform="translate(56 0)"/>
      </g>
     </g>
    </g>
    <g id="xtick_4">
     <g id="line2d_4">
      <g>
       <use xlink:href="#mf9a3711e8d" x="385.074016" y="363.98" style="fill: #2a261f; stroke: #2a261f; stroke-width: 0.8"/>
      </g>
     </g>
     <g id="text_4">
      <!-- 12 -->
      <g style="fill: #2a261f" transform="translate(379.474016 380.98) scale(0.1 -0.1)">
       <defs>
        <path id="HankenGrotesk-Regular-1d1" d="M 307 0 
L 307 448 
Q 531 627 828 844 
Q 1126 1062 1430 1318 
Q 1734 1574 1993 1862 
Q 2253 2150 2413 2470 
Q 2573 2790 2573 3130 
Q 2573 3507 2361 3744 
Q 2150 3981 1741 3981 
Q 1440 3981 1238 3843 
Q 1037 3706 937 3466 
Q 838 3226 832 2918 
L 301 2957 
Q 301 3270 397 3548 
Q 493 3827 678 4041 
Q 864 4256 1136 4381 
Q 1408 4506 1760 4506 
Q 2163 4506 2464 4336 
Q 2765 4166 2934 3862 
Q 3104 3558 3104 3149 
Q 3104 2790 2973 2457 
Q 2842 2125 2608 1824 
Q 2374 1523 2073 1254 
Q 1773 986 1433 749 
Q 1094 512 742 314 
L 883 506 
L 3283 506 
L 3283 0 
L 307 0 
z
" transform="scale(0.015625)"/>
       </defs>
       <use xlink:href="#HankenGrotesk-Regular-1d0"/>
       <use xlink:href="#HankenGrotesk-Regular-1d1" transform="translate(56 0)"/>
      </g>
     </g>
    </g>
    <g id="xtick_5">
     <g id="line2d_5">
      <g>
       <use xlink:href="#mf9a3711e8d" x="497.567134" y="363.98" style="fill: #2a261f; stroke: #2a261f; stroke-width: 0.8"/>
      </g>
     </g>
     <g id="text_5">
      <!-- 14 -->
      <g style="fill: #2a261f" transform="translate(491.967134 380.98) scale(0.1 -0.1)">
       <defs>
        <path id="HankenGrotesk-Regular-1d3" d="M 2227 0 
L 2227 1062 
L 102 1062 
L 102 1491 
L 2272 4461 
L 2771 4461 
L 2771 1568 
L 3488 1568 
L 3488 1062 
L 2771 1062 
L 2771 0 
L 2227 0 
z
M 557 1376 
L 512 1568 
L 2227 1568 
L 2227 3853 
L 2291 3808 
L 557 1376 
z
" transform="scale(0.015625)"/>
       </defs>
       <use xlink:href="#HankenGrotesk-Regular-1d0"/>
       <use xlink:href="#HankenGrotesk-Regular-1d3" transform="translate(56 0)"/>
      </g>
     </g>
    </g>
    <g id="text_6">
    <!-- Podíl minut domácí ligy hráčů do 21 let (%) -->
    <text x="226.254688" y="398.01" font-family="'Helvetica Neue', Helvetica, Arial, sans-serif" font-size="10.00" fill="#2a261f" text-anchor="start">Podíl minut domácí ligy hráčů do 21 let (%)</text>
   </g>
   </g>
   <g id="matplotlib.axis_2">
    <g id="ytick_1">
     <g id="line2d_6">
      <defs>
       <path id="m395d71bf2a" d="M 0 0 
L -3.5 0 
" style="stroke: #2a261f; stroke-width: 0.8"/>
      </defs>
      <g>
       <use xlink:href="#m395d71bf2a" x="42.43" y="354.131003" style="fill: #2a261f; stroke: #2a261f; stroke-width: 0.8"/>
      </g>
     </g>
     <g id="text_7">
      <!-- −5 -->
      <g style="fill: #2a261f" transform="translate(24.23 359.131003) scale(0.1 -0.1)">
       <defs>
        <path id="HankenGrotesk-Regular-254" d="M 582 1370 
L 582 1798 
L 3002 1798 
L 3002 1370 
L 582 1370 
z
" transform="scale(0.015625)"/>
        <path id="HankenGrotesk-Regular-1d4" d="M 1779 -51 
Q 1389 -51 1059 115 
Q 730 282 515 576 
Q 301 870 230 1248 
L 762 1344 
Q 806 1101 937 899 
Q 1069 698 1283 582 
Q 1498 467 1773 467 
Q 2093 467 2317 617 
Q 2541 768 2659 1011 
Q 2778 1254 2778 1530 
Q 2778 1798 2666 2019 
Q 2554 2240 2339 2371 
Q 2125 2502 1811 2502 
Q 1530 2502 1299 2374 
Q 1069 2246 902 2003 
L 371 2150 
L 787 4461 
L 3142 4461 
L 3142 3955 
L 986 3955 
L 1274 4186 
L 960 2458 
L 806 2490 
Q 1056 2784 1334 2899 
Q 1613 3014 1888 3014 
Q 2317 3014 2646 2812 
Q 2976 2611 3161 2272 
Q 3347 1933 3347 1530 
Q 3347 1210 3232 925 
Q 3117 640 2905 419 
Q 2694 198 2406 73 
Q 2118 -51 1779 -51 
z
" transform="scale(0.015625)"/>
       </defs>
       <use xlink:href="#HankenGrotesk-Regular-254"/>
       <use xlink:href="#HankenGrotesk-Regular-1d4" transform="translate(56 0)"/>
      </g>
     </g>
    </g>
    <g id="ytick_2">
     <g id="line2d_7">
      <g>
       <use xlink:href="#m395d71bf2a" x="42.43" y="282.761248" style="fill: #2a261f; stroke: #2a261f; stroke-width: 0.8"/>
      </g>
     </g>
     <g id="text_8">
      <!-- 0 -->
      <g style="fill: #2a261f" transform="translate(29.83 287.761248) scale(0.1 -0.1)">
       <use xlink:href="#HankenGrotesk-Regular-1cf"/>
      </g>
     </g>
    </g>
    <g id="ytick_3">
     <g id="line2d_8">
      <g>
       <use xlink:href="#m395d71bf2a" x="42.43" y="211.391493" style="fill: #2a261f; stroke: #2a261f; stroke-width: 0.8"/>
      </g>
     </g>
     <g id="text_9">
      <!-- 5 -->
      <g style="fill: #2a261f" transform="translate(29.83 216.391493) scale(0.1 -0.1)">
       <use xlink:href="#HankenGrotesk-Regular-1d4"/>
      </g>
     </g>
    </g>
    <g id="ytick_4">
     <g id="line2d_9">
      <g>
       <use xlink:href="#m395d71bf2a" x="42.43" y="140.021739" style="fill: #2a261f; stroke: #2a261f; stroke-width: 0.8"/>
      </g>
     </g>
     <g id="text_10">
      <!-- 10 -->
      <g style="fill: #2a261f" transform="translate(24.23 145.021739) scale(0.1 -0.1)">
       <use xlink:href="#HankenGrotesk-Regular-1d0"/>
       <use xlink:href="#HankenGrotesk-Regular-1cf" transform="translate(56 0)"/>
      </g>
     </g>
    </g>
    <g id="ytick_5">
     <g id="line2d_10">
      <g>
       <use xlink:href="#m395d71bf2a" x="42.43" y="68.651984" style="fill: #2a261f; stroke: #2a261f; stroke-width: 0.8"/>
      </g>
     </g>
     <g id="text_11">
      <!-- 15 -->
      <g style="fill: #2a261f" transform="translate(24.23 73.651984) scale(0.1 -0.1)">
       <use xlink:href="#HankenGrotesk-Regular-1d0"/>
       <use xlink:href="#HankenGrotesk-Regular-1d4" transform="translate(56 0)"/>
      </g>
     </g>
    </g>
    <g id="text_12">
    <!-- Hráči top-9 lig na milion obyvatel -->
    <text x="17.2" y="292.14625" font-family="'Helvetica Neue', Helvetica, Arial, sans-serif" font-size="10.00" fill="#2a261f" text-anchor="start" transform="rotate(-90 17.2 292.14625)">Hráči top-9 lig na milion obyvatel</text>
   </g>
   </g>
   <g id="line2d_11">
    <path d="M 67.552273 257.897005 
L 76.068297 255.650406 
L 84.584322 253.259212 
L 93.100347 251.131471 
L 101.616371 248.896221 
L 110.132396 246.47301 
L 118.648421 244.240224 
L 127.164445 241.785109 
L 135.68047 239.716629 
L 144.196495 237.569392 
L 152.712519 235.137859 
L 161.228544 232.955638 
L 169.744569 230.918595 
L 178.260593 228.739509 
L 186.776618 226.545145 
L 195.292643 224.323798 
L 203.808667 222.015734 
L 212.324692 219.599904 
L 220.840716 217.597661 
L 229.356741 215.559114 
L 237.872766 213.285031 
L 246.38879 210.91802 
L 254.904815 208.64461 
L 263.42084 206.308531 
L 271.936864 204.374557 
L 280.452889 202.036236 
L 288.968914 199.908483 
L 297.484938 197.82735 
L 306.000963 195.497151 
L 314.516988 193.26974 
L 323.033012 191.322235 
L 331.549037 189.216222 
L 340.065062 186.953117 
L 348.581086 184.659439 
L 357.097111 182.443553 
L 365.613136 180.118869 
L 374.12916 178.138261 
L 382.645185 175.858409 
L 391.16121 173.534511 
L 399.677234 171.434383 
L 408.193259 169.295488 
L 416.709284 167.011971 
L 425.225308 164.901421 
L 433.741333 162.873506 
L 442.257357 160.960254 
L 450.773382 158.551079 
L 459.289407 156.428857 
L 467.805431 154.214009 
L 476.321456 151.809421 
L 484.837481 149.751899 
L 493.353505 147.630023 
L 501.86953 145.459329 
L 510.385555 143.338447 
L 518.901579 140.991097 
L 527.417604 138.785853 
L 535.933629 136.595863 
L 544.449653 134.34259 
L 552.965678 132.001336 
L 561.481703 129.756625 
L 569.997727 127.58462 
" clip-path="url(#p5aba6d0e15)" style="fill: none; stroke: #1f3a5f; stroke-width: 2; stroke-linecap: square"/>
   </g>
   <g id="patch_3">
    <path d="M 42.43 363.98 
L 42.43 26.2 
" style="fill: none; stroke: #c8c2b7; stroke-width: 0.8; stroke-linejoin: miter; stroke-linecap: square"/>
   </g>
   <g id="patch_4">
    <path d="M 42.43 363.98 
L 595.12 363.98 
" style="fill: none; stroke: #c8c2b7; stroke-width: 0.8; stroke-linejoin: miter; stroke-linecap: square"/>
   </g>
   <g id="line2d_12">
    <path d="M 230.665394 214.246284 
L 68.932787 211.106014 
" clip-path="url(#p5aba6d0e15)" style="fill: none; stroke: #8a857b; stroke-opacity: 0.9; stroke-linecap: square"/>
   </g>
   <g id="text_13">
    <!-- AUT -->
    <g style="fill: #8a857b" transform="translate(73.932787 208.106014) scale(0.09 -0.09)">
     <defs>
      <path id="HankenGrotesk-Regular-1" d="M 109 0 
L 1811 4461 
L 2259 4461 
L 3962 0 
L 3347 0 
L 2042 3654 
L 730 0 
L 109 0 
z
M 1056 1050 
L 1229 1555 
L 2842 1555 
L 3027 1050 
L 1056 1050 
z
" transform="scale(0.015625)"/>
     </defs>
     <use xlink:href="#HankenGrotesk-Regular-1"/>
     <use xlink:href="#HankenGrotesk-Regular-94" transform="translate(61 0)"/>
     <use xlink:href="#HankenGrotesk-Regular-8f" transform="translate(126.59375 0)"/>
    </g>
   </g>
   <g id="line2d_13">
    <path d="M 497.09248 108.904525 
L 430.414249 60.94405 
" clip-path="url(#p5aba6d0e15)" style="fill: none; stroke: #8a857b; stroke-opacity: 0.9; stroke-linecap: square"/>
   </g>
   <g id="text_14">
    <!-- CRO -->
    <g style="fill: #8a857b" transform="translate(435.414249 57.94405) scale(0.09 -0.09)">
     <defs>
      <path id="HankenGrotesk-Regular-1c" d="M 2381 -77 
Q 1766 -77 1302 211 
Q 838 499 579 1020 
Q 320 1542 320 2234 
Q 320 2925 579 3443 
Q 838 3962 1302 4250 
Q 1766 4538 2381 4538 
Q 3053 4538 3545 4205 
Q 4038 3872 4256 3283 
L 3731 3085 
Q 3565 3520 3219 3760 
Q 2874 4000 2381 4000 
Q 1926 4000 1587 3782 
Q 1248 3565 1065 3171 
Q 883 2778 883 2234 
Q 883 1690 1065 1293 
Q 1248 896 1587 678 
Q 1926 461 2381 461 
Q 2874 461 3219 704 
Q 3565 947 3731 1376 
L 4256 1184 
Q 4038 602 3545 262 
Q 3053 -77 2381 -77 
z
" transform="scale(0.015625)"/>
      <path id="HankenGrotesk-Regular-84" d="M 506 0 
L 506 4461 
L 1837 4461 
Q 2349 4461 2675 4310 
Q 3002 4160 3162 3878 
Q 3322 3597 3322 3206 
Q 3322 2650 3002 2326 
Q 2682 2003 2074 1946 
Q 1978 1939 1843 1939 
Q 1709 1939 1581 1939 
L 1069 1939 
L 1069 0 
L 506 0 
z
M 3002 0 
L 1843 2010 
L 2419 2080 
L 3648 0 
L 3002 0 
z
M 1069 2438 
L 1779 2438 
Q 2074 2438 2291 2515 
Q 2509 2592 2633 2758 
Q 2758 2925 2758 3200 
Q 2758 3482 2633 3645 
Q 2509 3808 2288 3881 
Q 2067 3955 1779 3955 
L 1069 3955 
L 1069 2438 
z
" transform="scale(0.015625)"/>
      <path id="HankenGrotesk-Regular-66" d="M 2381 -77 
Q 1766 -77 1302 211 
Q 838 499 579 1017 
Q 320 1536 320 2227 
Q 320 2925 579 3443 
Q 838 3962 1302 4250 
Q 1766 4538 2381 4538 
Q 3008 4538 3475 4250 
Q 3942 3962 4201 3443 
Q 4461 2925 4461 2227 
Q 4461 1536 4198 1017 
Q 3936 499 3469 211 
Q 3002 -77 2381 -77 
z
M 2381 461 
Q 2848 461 3184 678 
Q 3520 896 3705 1293 
Q 3891 1690 3891 2227 
Q 3891 2771 3705 3168 
Q 3520 3565 3184 3782 
Q 2848 4000 2381 4000 
Q 1926 4000 1587 3785 
Q 1248 3571 1065 3174 
Q 883 2778 883 2227 
Q 883 1683 1065 1286 
Q 1248 890 1587 675 
Q 1926 461 2381 461 
z
" transform="scale(0.015625)"/>
     </defs>
     <use xlink:href="#HankenGrotesk-Regular-1c"/>
     <use xlink:href="#HankenGrotesk-Regular-84" transform="translate(70.40625 0)"/>
     <use xlink:href="#HankenGrotesk-Regular-66" transform="translate(128.609375 0)"/>
    </g>
   </g>
   <g id="line2d_14">
    <path d="M 67.552273 248.646505 
L 331.947833 251.358556 
" clip-path="url(#p5aba6d0e15)" style="fill: none; stroke: #9c3a2a; stroke-opacity: 0.9; stroke-width: 1.4; stroke-linecap: square"/>
   </g>
   <g id="text_15">
    <!-- CZE -->
    <g style="fill: #9c3a2a" transform="translate(336.947833 248.358556) scale(0.09 -0.09)">
     <defs>
      <path id="HankenGrotesk-Bold-1c" d="M 2387 -102 
Q 1754 -102 1270 192 
Q 787 486 518 1011 
Q 250 1536 250 2234 
Q 250 2931 518 3452 
Q 787 3974 1270 4268 
Q 1754 4563 2387 4563 
Q 3098 4563 3613 4208 
Q 4128 3853 4352 3232 
L 3571 2944 
Q 3430 3334 3126 3552 
Q 2822 3770 2387 3770 
Q 1990 3770 1692 3584 
Q 1395 3398 1238 3056 
Q 1082 2714 1082 2234 
Q 1082 1754 1238 1408 
Q 1395 1062 1692 876 
Q 1990 691 2387 691 
Q 2822 691 3126 908 
Q 3430 1126 3571 1517 
L 4352 1235 
Q 4128 614 3613 256 
Q 3098 -102 2387 -102 
z
" transform="scale(0.015625)"/>
      <path id="HankenGrotesk-Bold-b8" d="M 179 0 
L 179 678 
L 2771 3981 
L 2893 3718 
L 326 3718 
L 326 4461 
L 3603 4461 
L 3603 3782 
L 1088 576 
L 973 742 
L 3693 742 
L 3693 0 
L 179 0 
z
" transform="scale(0.015625)"/>
      <path id="HankenGrotesk-Bold-26" d="M 429 0 
L 429 4461 
L 3398 4461 
L 3398 3718 
L 1254 3718 
L 1254 2656 
L 3258 2656 
L 3258 1920 
L 1254 1920 
L 1254 742 
L 3398 742 
L 3398 0 
L 429 0 
z
" transform="scale(0.015625)"/>
     </defs>
     <use xlink:href="#HankenGrotesk-Bold-1c"/>
     <use xlink:href="#HankenGrotesk-Bold-b8" transform="translate(70.90625 0)"/>
     <use xlink:href="#HankenGrotesk-Bold-26" transform="translate(131.40625 0)"/>
    </g>
   </g>
   <g id="line2d_15">
    <path d="M 569.997727 103.194945 
L 451.792691 91.204826 
" clip-path="url(#p5aba6d0e15)" style="fill: none; stroke: #8a857b; stroke-opacity: 0.9; stroke-linecap: square"/>
   </g>
   <g id="text_16">
    <!-- DEN -->
    <g style="fill: #8a857b" transform="translate(456.792691 88.204826) scale(0.09 -0.09)">
     <defs>
      <path id="HankenGrotesk-Regular-22" d="M 506 0 
L 506 4461 
L 1741 4461 
Q 2835 4461 3436 3869 
Q 4038 3277 4038 2195 
Q 4038 1133 3443 566 
Q 2848 0 1734 0 
L 506 0 
z
M 1069 518 
L 1683 518 
Q 2253 518 2653 688 
Q 3053 858 3261 1232 
Q 3469 1606 3469 2214 
Q 3469 2822 3261 3203 
Q 3053 3584 2665 3763 
Q 2278 3942 1734 3942 
L 1069 3942 
L 1069 518 
z
" transform="scale(0.015625)"/>
      <path id="HankenGrotesk-Regular-26" d="M 506 0 
L 506 4461 
L 3443 4461 
L 3443 3955 
L 1069 3955 
L 1069 2528 
L 3226 2528 
L 3226 2022 
L 1069 2022 
L 1069 506 
L 3443 506 
L 3443 0 
L 506 0 
z
" transform="scale(0.015625)"/>
      <path id="HankenGrotesk-Regular-5e" d="M 506 0 
L 506 4461 
L 1101 4461 
L 3386 730 
L 3258 730 
L 3258 4461 
L 3821 4461 
L 3821 0 
L 3213 0 
L 941 3738 
L 1069 3738 
L 1069 0 
L 506 0 
z
" transform="scale(0.015625)"/>
     </defs>
     <use xlink:href="#HankenGrotesk-Regular-22"/>
     <use xlink:href="#HankenGrotesk-Regular-26" transform="translate(68.203125 0)"/>
     <use xlink:href="#HankenGrotesk-Regular-5e" transform="translate(126.703125 0)"/>
    </g>
   </g>
   <g id="line2d_16">
    <path d="M 500.485664 260.351145 
L 394.845395 263.348675 
" clip-path="url(#p5aba6d0e15)" style="fill: none; stroke: #8a857b; stroke-opacity: 0.9; stroke-linecap: square"/>
   </g>
   <g id="text_17">
    <!-- HUN -->
    <g style="fill: #8a857b" transform="translate(399.845395 260.348675) scale(0.09 -0.09)">
     <defs>
      <path id="HankenGrotesk-Regular-41" d="M 506 0 
L 506 4461 
L 1069 4461 
L 1069 2547 
L 3270 2547 
L 3270 4461 
L 3834 4461 
L 3834 0 
L 3270 0 
L 3270 2022 
L 1069 2022 
L 1069 0 
L 506 0 
z
" transform="scale(0.015625)"/>
     </defs>
     <use xlink:href="#HankenGrotesk-Regular-41"/>
     <use xlink:href="#HankenGrotesk-Regular-94" transform="translate(67.796875 0)"/>
     <use xlink:href="#HankenGrotesk-Regular-5e" transform="translate(133.390625 0)"/>
    </g>
   </g>
   <g id="line2d_17">
    <path d="M 356.338186 149.014328 
L 300.403448 154.15295 
" clip-path="url(#p5aba6d0e15)" style="fill: none; stroke: #8a857b; stroke-opacity: 0.9; stroke-linecap: square"/>
   </g>
   <g id="text_18">
    <!-- NOR -->
    <g style="fill: #8a857b" transform="translate(305.403448 151.15295) scale(0.09 -0.09)">
     <use xlink:href="#HankenGrotesk-Regular-5e"/>
     <use xlink:href="#HankenGrotesk-Regular-66" transform="translate(67.59375 0)"/>
     <use xlink:href="#HankenGrotesk-Regular-84" transform="translate(142.390625 0)"/>
    </g>
   </g>
   <g id="line2d_18">
    <path d="M 232.570276 265.204288 
L 414.648733 264.77607 
" clip-path="url(#p5aba6d0e15)" style="fill: none; stroke: #8a857b; stroke-opacity: 0.9; stroke-linecap: square"/>
   </g>
   <g id="text_19">
    <!-- POL -->
    <g style="fill: #8a857b" transform="translate(419.648733 261.77607) scale(0.09 -0.09)">
     <defs>
      <path id="HankenGrotesk-Regular-81" d="M 506 0 
L 506 4461 
L 1837 4461 
Q 2560 4461 2941 4141 
Q 3322 3821 3322 3200 
Q 3322 2579 2938 2249 
Q 2554 1920 1837 1920 
L 1062 1920 
L 1062 0 
L 506 0 
z
M 1062 2419 
L 1779 2419 
Q 2240 2419 2499 2608 
Q 2758 2797 2758 3194 
Q 2758 3584 2505 3769 
Q 2253 3955 1779 3955 
L 1062 3955 
L 1062 2419 
z
" transform="scale(0.015625)"/>
      <path id="HankenGrotesk-Regular-57" d="M 506 0 
L 506 4461 
L 1069 4461 
L 1069 506 
L 3066 506 
L 3066 0 
L 506 0 
z
" transform="scale(0.015625)"/>
     </defs>
     <use xlink:href="#HankenGrotesk-Regular-81"/>
     <use xlink:href="#HankenGrotesk-Regular-66" transform="translate(55.40625 0)"/>
     <use xlink:href="#HankenGrotesk-Regular-57" transform="translate(130.203125 0)"/>
    </g>
   </g>
   <g id="line2d_19">
    <path d="M 142.676265 196.689324 
L 230.444435 206.252871 
" clip-path="url(#p5aba6d0e15)" style="fill: none; stroke: #8a857b; stroke-opacity: 0.9; stroke-linecap: square"/>
   </g>
   <g id="text_20">
    <!-- SUI -->
    <g style="fill: #8a857b" transform="translate(235.444435 203.252871) scale(0.09 -0.09)">
     <defs>
      <path id="HankenGrotesk-Regular-88" d="M 1869 -70 
Q 1197 -70 768 282 
Q 339 634 243 1216 
L 794 1350 
Q 864 902 1161 668 
Q 1459 435 1888 435 
Q 2138 435 2336 531 
Q 2534 627 2649 803 
Q 2765 979 2765 1203 
Q 2765 1440 2637 1593 
Q 2509 1747 2281 1862 
Q 2054 1978 1754 2093 
Q 1382 2234 1104 2400 
Q 826 2566 672 2800 
Q 518 3034 518 3373 
Q 518 3712 684 3974 
Q 851 4237 1152 4387 
Q 1453 4538 1850 4538 
Q 2272 4538 2598 4346 
Q 2925 4154 3123 3776 
L 2675 3501 
Q 2528 3763 2317 3900 
Q 2106 4038 1830 4038 
Q 1613 4038 1443 3955 
Q 1274 3872 1178 3725 
Q 1082 3578 1082 3386 
Q 1082 3181 1197 3037 
Q 1312 2893 1529 2784 
Q 1747 2675 2054 2560 
Q 2445 2413 2726 2240 
Q 3008 2067 3165 1827 
Q 3322 1587 3322 1235 
Q 3322 858 3136 563 
Q 2950 269 2624 99 
Q 2298 -70 1869 -70 
z
" transform="scale(0.015625)"/>
      <path id="HankenGrotesk-Regular-44" d="M 506 0 
L 506 4461 
L 1069 4461 
L 1069 0 
L 506 0 
z
" transform="scale(0.015625)"/>
     </defs>
     <use xlink:href="#HankenGrotesk-Regular-88"/>
     <use xlink:href="#HankenGrotesk-Regular-94" transform="translate(56.40625 0)"/>
     <use xlink:href="#HankenGrotesk-Regular-44" transform="translate(122 0)"/>
    </g>
   </g>
   <g id="text_21">
    <!-- Minuty mládeže a hloubka fondu, napříč zeměmi a dvěma sezónami -->
    <text x="42.43" y="20.2" font-family="'Helvetica Neue', Helvetica, Arial, sans-serif" font-size="13.00" fill="#2a261f" text-anchor="start">Minuty mládeže a hloubka fondu, napříč zeměmi a dvěma sezónami</text>
   </g>
   <g id="PathCollection_1">
    <defs>
     <path id="ma213123e38" d="M 0 2.738613 
C 0.726289 2.738613 1.422928 2.450055 1.936492 1.936492 
C 2.450055 1.422928 2.738613 0.726289 2.738613 0 
C 2.738613 -0.726289 2.450055 -1.422928 1.936492 -1.936492 
C 1.422928 -2.450055 0.726289 -2.738613 0 -2.738613 
C -0.726289 -2.738613 -1.422928 -2.450055 -1.936492 -1.936492 
C -2.450055 -1.422928 -2.738613 -0.726289 -2.738613 0 
C -2.738613 0.726289 -2.450055 1.422928 -1.936492 1.936492 
C -1.422928 2.450055 -0.726289 2.738613 0 2.738613 
z
" style="stroke: #fdfbf6; stroke-width: 0.6"/>
    </defs>
    <g clip-path="url(#p5aba6d0e15)">
     <use xlink:href="#ma213123e38" x="230.665394" y="214.246284" style="fill: #8a857b; stroke: #fdfbf6; stroke-width: 0.6"/>
     <use xlink:href="#ma213123e38" x="68.932787" y="211.106014" style="fill: #8a857b; stroke: #fdfbf6; stroke-width: 0.6"/>
    </g>
   </g>
   <g id="PathCollection_2">
    <g clip-path="url(#p5aba6d0e15)">
     <use xlink:href="#ma213123e38" x="497.09248" y="108.904525" style="fill: #8a857b; stroke: #fdfbf6; stroke-width: 0.6"/>
     <use xlink:href="#ma213123e38" x="430.414249" y="60.94405" style="fill: #8a857b; stroke: #fdfbf6; stroke-width: 0.6"/>
    </g>
   </g>
   <g id="PathCollection_3">
    <defs>
     <path id="m698292362c" d="M 0 3.535534 
C 0.937635 3.535534 1.836992 3.163008 2.5 2.5 
C 3.163008 1.836992 3.535534 0.937635 3.535534 0 
C 3.535534 -0.937635 3.163008 -1.836992 2.5 -2.5 
C 1.836992 -3.163008 0.937635 -3.535534 0 -3.535534 
C -0.937635 -3.535534 -1.836992 -3.163008 -2.5 -2.5 
C -3.163008 -1.836992 -3.535534 -0.937635 -3.535534 0 
C -3.535534 0.937635 -3.163008 1.836992 -2.5 2.5 
C -1.836992 3.163008 -0.937635 3.535534 0 3.535534 
z
" style="stroke: #fdfbf6; stroke-width: 0.6"/>
    </defs>
    <g clip-path="url(#p5aba6d0e15)">
     <use xlink:href="#m698292362c" x="67.552273" y="248.646505" style="fill: #9c3a2a; stroke: #fdfbf6; stroke-width: 0.6"/>
     <use xlink:href="#m698292362c" x="331.947833" y="251.358556" style="fill: #9c3a2a; stroke: #fdfbf6; stroke-width: 0.6"/>
    </g>
   </g>
   <g id="PathCollection_4">
    <g clip-path="url(#p5aba6d0e15)">
     <use xlink:href="#ma213123e38" x="569.997727" y="103.194945" style="fill: #8a857b; stroke: #fdfbf6; stroke-width: 0.6"/>
     <use xlink:href="#ma213123e38" x="451.792691" y="91.204826" style="fill: #8a857b; stroke: #fdfbf6; stroke-width: 0.6"/>
    </g>
   </g>
   <g id="PathCollection_5">
    <g clip-path="url(#p5aba6d0e15)">
     <use xlink:href="#ma213123e38" x="500.485664" y="260.351145" style="fill: #8a857b; stroke: #fdfbf6; stroke-width: 0.6"/>
     <use xlink:href="#ma213123e38" x="394.845395" y="263.348675" style="fill: #8a857b; stroke: #fdfbf6; stroke-width: 0.6"/>
    </g>
   </g>
   <g id="PathCollection_6">
    <g clip-path="url(#p5aba6d0e15)">
     <use xlink:href="#ma213123e38" x="356.338186" y="149.014328" style="fill: #8a857b; stroke: #fdfbf6; stroke-width: 0.6"/>
     <use xlink:href="#ma213123e38" x="300.403448" y="154.15295" style="fill: #8a857b; stroke: #fdfbf6; stroke-width: 0.6"/>
    </g>
   </g>
   <g id="PathCollection_7">
    <g clip-path="url(#p5aba6d0e15)">
     <use xlink:href="#ma213123e38" x="232.570276" y="265.204288" style="fill: #8a857b; stroke: #fdfbf6; stroke-width: 0.6"/>
     <use xlink:href="#ma213123e38" x="414.648733" y="264.77607" style="fill: #8a857b; stroke: #fdfbf6; stroke-width: 0.6"/>
    </g>
   </g>
   <g id="PathCollection_8">
    <g clip-path="url(#p5aba6d0e15)">
     <use xlink:href="#ma213123e38" x="142.676265" y="196.689324" style="fill: #8a857b; stroke: #fdfbf6; stroke-width: 0.6"/>
     <use xlink:href="#ma213123e38" x="230.444435" y="206.252871" style="fill: #8a857b; stroke: #fdfbf6; stroke-width: 0.6"/>
    </g>
   </g>
   <g id="legend_1">
    <g id="line2d_20">
     <path d="M 50.53 40.15 
L 59.53 40.15 
L 68.53 40.15 
" style="fill: none; stroke: #1f3a5f; stroke-width: 2; stroke-linecap: square"/>
    </g>
    <g id="text_22">
    <!-- Fitovaná přímka (mezi zeměmi, 90% pásmo) -->
    <text x="75.73" y="43.3" font-family="'Helvetica Neue', Helvetica, Arial, sans-serif" font-size="9.00" fill="#2a261f" text-anchor="start">Fitovaná přímka (mezi zeměmi, 90% pásmo)</text>
   </g>
   </g>
  </g>
 </g>
 <defs>
  <clipPath id="p5aba6d0e15">
   <rect x="42.43" y="26.2" width="552.69" height="337.78"/>
  </clipPath>
 </defs>
</svg>
